# xmcd
#
# Track frame offsets:
#	150
#	15226
#	34153
#	49747
#	64790
#	82146
#	99351
#	116976
#	135359
#	151301
#	166377
#	185304
#	200898
#	215941
#	233297
#	250502
#	268127
#	286510
#
# Disc length: 4032
#
# Revision: 2
# Processed by: cddbd v1.5.2PL0 Copyright (c) Steve Scherf et al.
# Submitted via: kJams Pro 1.0b99
#
DISCID=f40fbe12
DTITLE=Various Artist - NSC 3034
DYEAR=2004
DGENRE=Karaoke
TTITLE0=Darryl Worley - Family Tree
TTITLE1=Shania Twain - I'm Gonna Getcha Good
TTITLE2=Mark Wills - Nineteen Something
TTITLE3=Trace Adkins - Chrome
TTITLE4=Lee Ann Womack - Forever Everyda
TTITLE5=Joe Nichols - Brokenheartsville
TTITLE6=Anthony Smith - John J. Blanchard
TTITLE7=Tommy Shane Steiner - What We're Gonna Do About It
TTITLE8=Tanya Tucker - A Memory Like I'm Gonna Be
TTITLE9=Darryl Worley – Vocals - Family Tree
TTITLE10=Shania Twain – Vocals - I'm Gonna Getcha Good
TTITLE11=Mark Wills – Vocals - Nineteen Something
TTITLE12=Trace Adkins – Vocals - Chrome
TTITLE13=Lee Ann Womack – Vocals - Forever Everyday
TTITLE14=Joe Nichols – Vocals - Brokenheartsville
TTITLE15=Anthony Smith – Vocals - John J. Blanchard
TTITLE16=Tommy Shane Steiner – Vocals - What We're Gonna Do About It
TTITLE17=Tanya Tucker – Vocals - A Memory Like I'm Gonna Be
EXTD=
EXTT0=
EXTT1=
EXTT2=
EXTT3=
EXTT4=
EXTT5=
EXTT6=
EXTT7=
EXTT8=
EXTT9=
EXTT10=
EXTT11=
EXTT12=
EXTT13=
EXTT14=
EXTT15=
EXTT16=
EXTT17=
PLAYORDER=
